<?xml version="1.0" standalone="no"?><!DOCTYPE svg PUBLIC "-//W3C//DTD SVG 1.1//EN" "http://www.w3.org/Graphics/SVG/1.1/DTD/svg11.dtd"><svg class="img-fluid" id="outputsvg" width="414" height="414" viewBox="0 0 4140 4140" version="1.1" xmlns="http://www.w3.org/2000/svg" xmlns:xlink="http://www.w3.org/1999/xlink"><g id="l46DCCJgOxR6Xnyk49NGumK" fill="rgb(0,0,0)" style="block-size:auto;cursor:move;height:auto;inline-size:auto;overflow-x:visible;overflow-y:visible;perspective-origin:0px 0px;text-align:center;transform-origin:0px 0px;vertical-align:baseline;width:auto;"><g style="block-size:auto;cursor:move;height:auto;inline-size:auto;overflow-x:visible;overflow-y:visible;perspective-origin:0px 0px;text-align:center;transform-origin:0px 0px;vertical-align:baseline;width:auto;"><path id="pfvVzAbYh" d="M455 3889 c-49 -28 -120 -69 -158 -90 l-67 -40 2 -1706 3 -1705 149 -96 c122 -78 151 -93 165 -84 9 6 329 194 711 418 485 284 704 406 725 407 21 0 125 -55 365 -195 184 -108 550 -320 813 -471 l478 -275 147 93 147 94 3 1708 c2 1670 2 1708 -17 1720 -10 7 -80 46 -155 88 l-136 76 -163 -94 c-89 -52 -301 -176 -472 -274 -170 -99 -421 -243 -557 -322 -136 -78 -251 -142 -255 -142 -4 1 -161 90 -348 198 -187 108 -479 277 -650 376 -171 98 -383 221 -471 273 -89 52 -164 94 -165 94 -2 0 -44 -23 -94 -51z m168 -80 c117 -67 135 -77 210 -121 40 -22 98 -56 130 -74 183 -107 275 -161 335 -195 18 -11 93 -54 165 -96 369 -212 467 -269 527 -303 35 -20 65 -41 67 -46 1 -5 -38 -33 -88 -62 l-91 -52 -26 18 c-15 10 -92 56 -172 102 -151 87 -507 294 -620 360 -36 21 -208 121 -382 223 l-317 184 72 40 c87 49 111 62 115 63 1 0 35 -19 75 -41z m3103 -120 l93 -52 -312 -182 c-172 -99 -474 -275 -672 -390 -198 -114 -380 -220 -405 -235 -40 -24 -217 -127 -940 -546 l-205 -119 -3 -41 -3 -40 300 -175 c165 -96 301 -176 301 -179 0 -3 -26 -21 -57 -40 -32 -19 -71 -43 -86 -55 l-28 -20 -47 26 c-42 23 -292 166 -444 255 -32 19 -86 50 -120 70 -220 127 -199 111 -196 157 3 46 -20 29 268 195 160 92 217 125 338 196 50 29 132 76 234 135 61 34 152 88 336 195 50 29 132 76 234 135 33 19 109 62 216 124 155 91 324 189 354 205 18 11 92 53 165 95 72 42 147 85 167 96 19 11 53 31 75 45 22 15 43 26 46 26 2 0 29 16 59 35 30 19 57 35 60 35 2 0 42 22 88 50 45 27 85 49 87 50 2 0 45 -23 97 -51z m-3266 -139 c41 -24 100 -57 130 -75 183 -106 233 -135 237 -135 3 0 17 -8 31 -19 15 -10 47 -29 72 -43 42 -24 84 -48 228 -131 122 -72 322 -187 354 -206 18 -10 62 -36 98 -56 36 -21 84 -49 108 -63 24 -13 42 -26 40 -27 -2 -2 -42 -26 -90 -53 l-87 -51 -505 295 c-435 253 -511 294 -546 294 l-40 0 0 -1500 c0 -825 -2 -1500 -5 -1500 -3 0 -11 5 -18 11 -7 6 -48 34 -92 62 l-80 52 -3 1015 c-2 558 0 1286 4 1617 l6 602 42 -23 c22 -13 75 -43 116 -66z m3420 -1639 l0 -1619 -87 -55 c-48 -31 -89 -54 -91 -52 -2 1 -4 673 -5 1491 l-2 1489 -43 3 c-41 3 -67 -11 -400 -204 -313 -182 -871 -508 -972 -567 -19 -11 -46 -27 -60 -34 -14 -8 -41 -23 -60 -35 -185 -109 -531 -308 -535 -308 -2 0 -43 23 -91 51 l-87 51 29 18 c16 9 137 79 269 155 132 76 265 153 295 171 30 18 154 89 275 159 121 70 249 144 285 165 36 21 137 79 225 130 88 51 189 109 225 130 36 21 164 95 285 165 237 137 299 173 445 259 52 30 96 55 98 56 1 0 2 -729 2 -1619z m-3080 -72 l5 -1164 42 -3 c39 -3 72 14 450 234 224 130 460 267 523 304 96 56 1559 904 1583 917 4 2 7 -44 7 -104 l0 -108 -72 -40 c-39 -22 -101 -57 -137 -79 -36 -21 -95 -55 -131 -76 -36 -21 -189 -110 -340 -197 -410 -239 -463 -269 -605 -351 -71 -41 -182 -105 -245 -142 -63 -37 -299 -175 -525 -305 -226 -131 -489 -284 -585 -340 l-175 -101 -8 600 c-5 331 -6 971 -2 1423 l7 822 102 -63 101 -63 5 -1164z m2794 -1487 l-6 -182 -42 23 c-22 13 -68 40 -101 59 -258 151 -386 226 -465 270 -19 11 -145 84 -280 163 -135 79 -261 152 -280 163 -19 11 -62 35 -95 54 -33 19 -91 53 -130 75 -38 22 -70 46 -70 52 0 6 38 33 84 60 70 42 88 48 105 39 11 -6 235 -136 499 -289 405 -236 485 -279 518 -279 21 0 40 1 41 3 2 1 5 272 8 601 l5 599 60 36 60 36 2 220 2 220 -62 36 -62 37 -3 273 -2 274 42 25 c23 14 60 36 83 49 22 13 51 31 65 41 l25 18 3 -1246 c2 -686 0 -1329 -4 -1430z m-2613 2599 c46 -27 156 -90 244 -141 88 -50 187 -108 219 -127 33 -20 73 -39 89 -42 28 -6 2 -23 -289 -190 -175 -102 -329 -191 -341 -199 l-23 -14 0 381 c0 209 4 381 9 381 4 0 46 -22 92 -49z m2319 -332 l0 -270 -42 25 c-24 14 -127 74 -230 133 -104 59 -188 111 -188 115 0 6 125 88 135 88 3 0 46 25 96 55 50 30 92 55 94 55 3 0 28 16 57 34 29 19 59 35 66 35 9 1 12 -60 12 -270z m-473 -88 c17 -11 139 -81 270 -157 131 -75 239 -138 241 -139 5 -4 -51 -37 -868 -510 -283 -164 -564 -328 -625 -363 -60 -36 -139 -81 -175 -102 -36 -21 -195 -113 -355 -205 -159 -93 -315 -183 -345 -201 l-55 -33 -3 96 c-1 53 -1 102 2 108 2 6 452 272 1000 591 l997 579 -3 39 c-3 39 -4 39 -138 118 -182 106 -169 96 -145 111 49 31 151 86 160 87 6 0 24 -9 42 -19z m-303 -190 c19 -11 53 -31 75 -45 22 -15 43 -26 46 -26 2 0 18 -8 35 -19 l31 -18 -77 -46 c-65 -38 -81 -44 -98 -35 -87 46 -205 121 -201 128 3 5 29 21 58 35 29 15 56 31 62 36 14 14 31 11 69 -10z m-242 -144 c36 -23 100 -61 142 -85 42 -23 76 -47 76 -52 0 -14 -59 -55 -140 -98 -112 -59 -196 -108 -232 -135 -18 -13 -54 -36 -80 -51 l-47 -27 -148 86 c-81 48 -155 93 -163 101 -18 19 -10 26 100 86 41 23 93 53 115 68 22 15 74 45 116 67 41 23 91 50 110 62 49 30 75 26 151 -22z m-1038 -451 c291 -170 348 -206 317 -206 -5 0 -43 -21 -86 -47 l-77 -47 -37 20 c-172 98 -429 249 -443 262 -15 12 -18 32 -18 114 0 55 4 98 9 96 4 -1 155 -88 335 -192z m2052 -743 c-2 -3 -24 8 -48 23 -51 33 -135 81 -238 139 -132 73 -174 97 -200 114 -14 9 -42 26 -63 36 -21 11 -52 31 -68 45 l-29 25 322 186 323 187 3 -376 c1 -206 0 -377 -2 -379z m-2173 507 c119 -69 215 -129 214 -135 -2 -5 -30 -25 -63 -44 -32 -18 -79 -46 -104 -61 -25 -14 -54 -31 -65 -38 -11 -6 -63 -36 -117 -67 -53 -30 -99 -55 -102 -55 -3 0 -6 120 -6 266 0 217 2 265 13 262 8 -2 111 -59 230 -128z m1826 -405 l321 -187 0 -99 c0 -55 -3 -99 -6 -99 -5 0 -237 133 -678 390 -81 48 -148 91 -148 96 1 14 155 95 173 90 9 -2 161 -88 338 -191z" style="block-size:auto;cursor:move;d:path(&quot;M 455 3889 C 406 3861 335 3820 297 3799 L 230 3759 L 232 2053 L 235 348 L 384 252 C 506 174 535 159 549 168 C 558 174 878 362 1260 586 C 1745 870 1964 992 1985 993 C 2006 993 2110 938 2350 798 C 2534 690 2900 478 3163 327 L 3641 52 L 3788 145 L 3935 239 L 3938 1947 C 3940 3617 3940 3655 3921 3667 C 3911 3674 3841 3713 3766 3755 L 3630 3831 L 3467 3737 C 3378 3685 3166 3561 2995 3463 C 2825 3364 2574 3220 2438 3141 C 2302 3063 2187 2999 2183 2999 C 2179 3000 2022 3089 1835 3197 C 1648 3305 1356 3474 1185 3573 C 1014 3671 802 3794 714 3846 C 625 3898 550 3940 549 3940 C 547 3940 505 3917 455 3889 Z M 623 3809 C 740 3742 758 3732 833 3688 C 873 3666 931 3632 963 3614 C 1146 3507 1238 3453 1298 3419 C 1316 3408 1391 3365 1463 3323 C 1832 3111 1930 3054 1990 3020 C 2025 3000 2055 2979 2057 2974 C 2058 2969 2019 2941 1969 2912 L 1878 2860 L 1852 2878 C 1837 2888 1760 2934 1680 2980 C 1529 3067 1173 3274 1060 3340 C 1024 3361 852 3461 678 3563 L 361 3747 L 433 3787 C 520 3836 544 3849 548 3850 C 549 3850 583 3831 623 3809 Z M 3726 3689 L 3819 3637 L 3507 3455 C 3335 3356 3033 3180 2835 3065 C 2637 2951 2455 2845 2430 2830 C 2390 2806 2213 2703 1490 2284 L 1285 2165 L 1282 2124 L 1279 2084 L 1579 1909 C 1744 1813 1880 1733 1880 1730 C 1880 1727 1854 1709 1823 1690 C 1791 1671 1752 1647 1737 1635 L 1709 1615 L 1662 1641 C 1620 1664 1370 1807 1218 1896 C 1186 1915 1132 1946 1098 1966 C 878 2093 899 2077 902 2123 C 905 2169 882 2152 1170 2318 C 1330 2410 1387 2443 1508 2514 C 1558 2543 1640 2590 1742 2649 C 1803 2683 1894 2737 2078 2844 C 2128 2873 2210 2920 2312 2979 C 2345 2998 2421 3041 2528 3103 C 2683 3194 2852 3292 2882 3308 C 2900 3319 2974 3361 3047 3403 C 3119 3445 3194 3488 3214 3499 C 3233 3510 3267 3530 3289 3544 C 3311 3559 3332 3570 3335 3570 C 3337 3570 3364 3586 3394 3605 C 3424 3624 3451 3640 3454 3640 C 3456 3640 3496 3662 3542 3690 C 3587 3717 3627 3739 3629 3740 C 3631 3740 3674 3717 3726 3689 Z M 460 3550 C 501 3526 560 3493 590 3475 C 773 3369 823 3340 827 3340 C 830 3340 844 3332 858 3321 C 873 3311 905 3292 930 3278 C 972 3254 1014 3230 1158 3147 C 1280 3075 1480 2960 1512 2941 C 1530 2931 1574 2905 1610 2885 C 1646 2864 1694 2836 1718 2822 C 1742 2809 1760 2796 1758 2795 C 1756 2793 1716 2769 1668 2742 L 1581 2691 L 1076 2986 C 641 3239 565 3280 530 3280 L 490 3280 L 490 1780 C 490 955 488 280 485 280 C 482 280 474 285 467 291 C 460 297 419 325 375 353 L 295 405 L 292 1420 C 290 1978 292 2706 296 3037 L 302 3639 L 344 3616 C 366 3603 419 3573 460 3550 Z M 3880 1911 L 3880 292 L 3793 237 C 3745 206 3704 183 3702 185 C 3700 186 3698 858 3697 1676 L 3695 3165 L 3652 3168 C 3611 3171 3585 3157 3252 2964 C 2939 2782 2381 2456 2280 2397 C 2261 2386 2234 2370 2220 2363 C 2206 2355 2179 2340 2160 2328 C 1975 2219 1629 2020 1625 2020 C 1623 2020 1582 2043 1534 2071 L 1447 2122 L 1476 2140 C 1492 2149 1613 2219 1745 2295 C 1877 2371 2010 2448 2040 2466 C 2070 2484 2194 2555 2315 2625 C 2436 2695 2564 2769 2600 2790 C 2636 2811 2737 2869 2825 2920 C 2913 2971 3014 3029 3050 3050 C 3086 3071 3214 3145 3335 3215 C 3572 3352 3634 3388 3780 3474 C 3832 3504 3876 3529 3878 3530 C 3879 3530 3880 2801 3880 1911 Z M 800 1839 L 805 675 L 847 672 C 886 669 919 686 1297 906 C 1521 1036 1757 1173 1820 1210 C 1916 1266 3379 2114 3403 2127 C 3407 2129 3410 2083 3410 2023 L 3410 1915 L 3338 1875 C 3299 1853 3237 1818 3201 1796 C 3165 1775 3106 1741 3070 1720 C 3034 1699 2881 1610 2730 1523 C 2320 1284 2267 1254 2125 1172 C 2054 1131 1943 1067 1880 1030 C 1817 993 1581 855 1355 725 C 1129 594 866 441 770 385 L 595 284 L 587 884 C 582 1215 581 1855 585 2307 L 592 3129 L 694 3066 L 795 3003 L 800 1839 Z M 3594 352 L 3588 170 L 3546 193 C 3524 206 3478 233 3445 252 C 3187 403 3059 478 2980 522 C 2961 533 2835 606 2700 685 C 2565 764 2439 837 2420 848 C 2401 859 2358 883 2325 902 C 2292 921 2234 955 2195 977 C 2157 999 2125 1023 2125 1029 C 2125 1035 2163 1062 2209 1089 C 2279 1131 2297 1137 2314 1128 C 2325 1122 2549 992 2813 839 C 3218 603 3298 560 3331 560 C 3352 560 3371 561 3372 563 C 3374 564 3377 835 3380 1164 L 3385 1763 L 3445 1799 L 3505 1835 L 3507 2055 L 3509 2275 L 3447 2311 L 3385 2348 L 3382 2621 L 3380 2895 L 3422 2920 C 3445 2934 3482 2956 3505 2969 C 3527 2982 3556 3000 3570 3010 L 3595 3028 L 3598 1782 C 3600 1096 3598 453 3594 352 Z M 981 2951 C 1027 2924 1137 2861 1225 2810 C 1313 2760 1412 2702 1444 2683 C 1477 2663 1517 2644 1533 2641 C 1561 2635 1535 2618 1244 2451 C 1069 2349 915 2260 903 2252 L 880 2238 L 880 2619 C 880 2828 884 3000 889 3000 C 893 3000 935 2978 981 2951 Z M 3300 2619 L 3300 2349 L 3258 2374 C 3234 2388 3131 2448 3028 2507 C 2924 2566 2840 2618 2840 2622 C 2840 2628 2965 2710 2975 2710 C 2978 2710 3021 2735 3071 2765 C 3121 2795 3163 2820 3165 2820 C 3168 2820 3193 2836 3222 2854 C 3251 2873 3281 2889 3288 2889 C 3297 2890 3300 2829 3300 2619 Z M 2827 2531 C 2844 2520 2966 2450 3097 2374 C 3228 2299 3336 2236 3338 2235 C 3343 2231 3287 2198 2470 1725 C 2187 1561 1906 1397 1845 1362 C 1785 1326 1706 1281 1670 1260 C 1634 1239 1475 1147 1315 1055 C 1156 962 1000 872 970 854 L 915 821 L 912 917 C 911 970 911 1019 914 1025 C 916 1031 1366 1297 1914 1616 L 2911 2195 L 2908 2234 C 2905 2273 2904 2273 2770 2352 C 2588 2458 2601 2448 2625 2463 C 2674 2494 2776 2549 2785 2550 C 2791 2550 2809 2541 2827 2531 Z M 2524 2341 C 2543 2330 2577 2310 2599 2296 C 2621 2281 2642 2270 2645 2270 C 2647 2270 2663 2262 2680 2251 L 2711 2233 L 2634 2187 C 2569 2149 2553 2143 2536 2152 C 2449 2198 2331 2273 2335 2280 C 2338 2285 2364 2301 2393 2315 C 2422 2330 2449 2346 2455 2351 C 2469 2365 2486 2362 2524 2341 Z M 2282 2197 C 2318 2174 2382 2136 2424 2112 C 2466 2089 2500 2065 2500 2060 C 2500 2046 2441 2005 2360 1962 C 2248 1903 2164 1854 2128 1827 C 2110 1814 2074 1791 2048 1776 L 2001 1749 L 1853 1835 C 1772 1883 1698 1928 1690 1936 C 1672 1955 1680 1962 1790 2022 C 1831 2045 1883 2075 1905 2090 C 1927 2105 1979 2135 2021 2157 C 2062 2180 2112 2207 2131 2219 C 2180 2249 2206 2245 2282 2197 Z M 1244 1746 C 1535 1576 1592 1540 1561 1540 C 1556 1540 1518 1519 1475 1493 L 1398 1446 L 1361 1466 C 1189 1564 932 1715 918 1728 C 903 1740 900 1760 900 1842 C 900 1897 904 1940 909 1938 C 913 1937 1064 1850 1244 1746 Z M 3296 1003 C 3294 1000 3272 1011 3248 1026 C 3197 1059 3113 1107 3010 1165 C 2878 1238 2836 1262 2810 1279 C 2796 1288 2768 1305 2747 1315 C 2726 1326 2695 1346 2679 1360 L 2650 1385 L 2972 1571 L 3295 1758 L 3298 1382 C 3299 1176 3298 1005 3296 1003 Z M 1123 1510 C 1242 1441 1338 1381 1337 1375 C 1335 1370 1307 1350 1274 1331 C 1242 1313 1195 1285 1170 1270 C 1145 1256 1116 1239 1105 1232 C 1094 1226 1042 1196 988 1165 C 935 1135 889 1110 886 1110 C 883 1110 880 1230 880 1376 C 880 1593 882 1641 893 1638 C 901 1636 1004 1579 1123 1510 Z M 2949 1105 L 3270 918 L 3270 819 C 3270 764 3267 720 3264 720 C 3259 720 3027 853 2586 1110 C 2505 1158 2438 1201 2438 1206 C 2439 1220 2593 1301 2611 1296 C 2620 1294 2772 1208 2949 1105 Z&quot;);height:auto;inline-size:auto;overflow-x:visible;overflow-y:visible;perspective-origin:0px 0px;text-align:center;transform-origin:0px 0px;vertical-align:baseline;width:auto;"/></g></g><g id="lO0oFRDuPTDqAu3pGxeGhO" fill="rgb(35,130,127)" style="block-size:auto;cursor:move;fill:rgb(35, 130, 127);height:auto;inline-size:auto;overflow-x:visible;overflow-y:visible;perspective-origin:0px 0px;text-align:center;transform-origin:0px 0px;vertical-align:baseline;width:auto;"><g style="block-size:auto;cursor:move;fill:rgb(35, 130, 127);height:auto;inline-size:auto;overflow-x:visible;overflow-y:visible;perspective-origin:0px 0px;text-align:center;transform-origin:0px 0px;vertical-align:baseline;width:auto;"><path id="php9ojQlH" d="M296 3751 c-6 -9 7 -22 40 -39 19 -10 20 -8 16 19 -3 22 -9 29 -28 29 -12 0 -25 -4 -28 -9z" style="block-size:auto;cursor:move;d:path(&quot;M 296 3751 C 290 3742 303 3729 336 3712 C 355 3702 356 3704 352 3731 C 349 3753 343 3760 324 3760 C 312 3760 299 3756 296 3751 Z&quot;);fill:rgb(35, 130, 127);height:auto;inline-size:auto;overflow-x:visible;overflow-y:visible;perspective-origin:0px 0px;text-align:center;transform-origin:0px 0px;vertical-align:baseline;width:auto;"/><path id="pfLM30WAR" d="M265 2038 l0 -1663 80 -52 c44 -28 85 -55 90 -60 23 -19 65 -43 75 -43 7 0 10 477 10 1515 0 1023 3 1515 10 1515 10 0 971 -556 1021 -591 25 -18 25 -17 149 54 68 40 125 77 127 83 2 5 -25 26 -59 46 -35 19 -92 52 -128 73 -36 20 -80 46 -98 56 -32 19 -232 134 -354 206 -144 83 -186 107 -228 131 -25 14 -57 33 -72 43 -14 11 -28 19 -31 19 -4 0 -54 29 -242 138 -33 19 -105 61 -160 92 -55 31 -116 66 -135 78 -19 12 -39 22 -45 22 -7 0 -10 -561 -10 -1662z" style="block-size:auto;cursor:move;d:path(&quot;M 265 2038 L 265 375 L 345 323 C 389 295 430 268 435 263 C 458 244 500 220 510 220 C 517 220 520 697 520 1735 C 520 2758 523 3250 530 3250 C 540 3250 1501 2694 1551 2659 C 1576 2641 1576 2642 1700 2713 C 1768 2753 1825 2790 1827 2796 C 1829 2801 1802 2822 1768 2842 C 1733 2861 1676 2894 1640 2915 C 1604 2935 1560 2961 1542 2971 C 1510 2990 1310 3105 1188 3177 C 1044 3260 1002 3284 960 3308 C 935 3322 903 3341 888 3351 C 874 3362 860 3370 857 3370 C 853 3370 803 3399 615 3508 C 582 3527 510 3569 455 3600 C 400 3631 339 3666 320 3678 C 301 3690 281 3700 275 3700 C 268 3700 265 3139 265 2038 Z&quot;);fill:rgb(35, 130, 127);height:auto;inline-size:auto;overflow-x:visible;overflow-y:visible;perspective-origin:0px 0px;text-align:center;transform-origin:0px 0px;vertical-align:baseline;width:auto;"/><path id="p3Rt8t4DB" d="M420 3672 c0 -8 52 -42 64 -42 3 0 6 11 6 25 0 22 -4 25 -35 25 -19 0 -35 -4 -35 -8z" style="block-size:auto;cursor:move;d:path(&quot;M 420 3672 C 420 3664 472 3630 484 3630 C 487 3630 490 3641 490 3655 C 490 3677 486 3680 455 3680 C 436 3680 420 3676 420 3672 Z&quot;);fill:rgb(35, 130, 127);height:auto;inline-size:auto;overflow-x:visible;overflow-y:visible;perspective-origin:0px 0px;text-align:center;transform-origin:0px 0px;vertical-align:baseline;width:auto;"/><path id="pTXFOgiKH" d="M1210 3212 c0 -5 17 -18 38 -30 l38 -21 -4 29 c-4 27 -8 30 -38 30 -19 0 -34 -4 -34 -8z" style="block-size:auto;cursor:move;d:path(&quot;M 1210 3212 C 1210 3207 1227 3194 1248 3182 L 1286 3161 L 1282 3190 C 1278 3217 1274 3220 1244 3220 C 1225 3220 1210 3216 1210 3212 Z&quot;);fill:rgb(35, 130, 127);height:auto;inline-size:auto;overflow-x:visible;overflow-y:visible;perspective-origin:0px 0px;text-align:center;transform-origin:0px 0px;vertical-align:baseline;width:auto;"/><path id="p1Arzva0mc" d="M1450 3072 c0 -5 17 -18 38 -30 l38 -21 -4 29 c-4 27 -8 30 -38 30 -19 0 -34 -4 -34 -8z" style="block-size:auto;cursor:move;d:path(&quot;M 1450 3072 C 1450 3067 1467 3054 1488 3042 L 1526 3021 L 1522 3050 C 1518 3077 1514 3080 1484 3080 C 1465 3080 1450 3076 1450 3072 Z&quot;);fill:rgb(35, 130, 127);height:auto;inline-size:auto;overflow-x:visible;overflow-y:visible;perspective-origin:0px 0px;text-align:center;transform-origin:0px 0px;vertical-align:baseline;width:auto;"/><path id="p16Ob3OKDb" d="M3555 3049 c-28 -18 -66 -41 -85 -53 -20 -12 -55 -32 -78 -46 l-42 -25 0 -271 c0 -149 -2 -284 -6 -300 -5 -27 -1 -32 65 -69 l70 -40 -2 -190 -2 -190 -60 -36 -60 -36 -5 -599 c-3 -329 -6 -600 -8 -601 -7 -9 -68 25 -527 292 -279 162 -513 295 -521 295 -15 0 -186 -100 -228 -133 l-29 -23 39 -24 c51 -31 239 -140 314 -182 19 -11 145 -84 280 -163 135 -79 261 -152 280 -163 78 -44 212 -122 460 -267 140 -82 200 -115 209 -115 13 0 9 2962 -4 2967 -6 2 -33 -11 -60 -28z" style="block-size:auto;cursor:move;d:path(&quot;M 3555 3049 C 3527 3031 3489 3008 3470 2996 C 3450 2984 3415 2964 3392 2950 L 3350 2925 L 3350 2654 C 3350 2505 3348 2370 3344 2354 C 3339 2327 3343 2322 3409 2285 L 3479 2245 L 3477 2055 L 3475 1865 L 3415 1829 L 3355 1793 L 3350 1194 C 3347 865 3344 594 3342 593 C 3335 584 3274 618 2815 885 C 2536 1047 2302 1180 2294 1180 C 2279 1180 2108 1080 2066 1047 L 2037 1024 L 2076 1000 C 2127 969 2315 860 2390 818 C 2409 807 2535 734 2670 655 C 2805 576 2931 503 2950 492 C 3028 448 3162 370 3410 225 C 3550 143 3610 110 3619 110 C 3632 110 3628 3072 3615 3077 C 3609 3079 3582 3066 3555 3049 Z&quot;);fill:rgb(35, 130, 127);height:auto;inline-size:auto;overflow-x:visible;overflow-y:visible;perspective-origin:0px 0px;text-align:center;transform-origin:0px 0px;vertical-align:baseline;width:auto;"/><path id="p19CrQnpuL" d="M1660 2952 c0 -4 21 -20 48 -36 26 -15 41 -22 35 -15 -7 7 -13 23 -13 36 0 20 -5 23 -35 23 -19 0 -35 -3 -35 -8z" style="block-size:auto;cursor:move;d:path(&quot;M 1660 2952 C 1660 2948 1681 2932 1708 2916 C 1734 2901 1749 2894 1743 2901 C 1736 2908 1730 2924 1730 2937 C 1730 2957 1725 2960 1695 2960 C 1676 2960 1660 2957 1660 2952 Z&quot;);fill:rgb(35, 130, 127);height:auto;inline-size:auto;overflow-x:visible;overflow-y:visible;perspective-origin:0px 0px;text-align:center;transform-origin:0px 0px;vertical-align:baseline;width:auto;"/><path id="pEpBcvodD" d="M1820 2851 c14 -11 30 -21 35 -21 11 0 -7 14 -40 31 -13 7 -12 3 5 -10z" style="block-size:auto;cursor:move;d:path(&quot;M 1820 2851 C 1834 2840 1850 2830 1855 2830 C 1866 2830 1848 2844 1815 2861 C 1802 2868 1803 2864 1820 2851 Z&quot;);fill:rgb(35, 130, 127);height:auto;inline-size:auto;overflow-x:visible;overflow-y:visible;perspective-origin:0px 0px;text-align:center;transform-origin:0px 0px;vertical-align:baseline;width:auto;"/><path id="p1ENJ5aZbB" d="M2440 2391 c-29 -22 -119 -73 -169 -97 l-34 -16 114 -67 c219 -128 202 -120 224 -106 11 7 64 38 118 70 l99 57 -57 34 c-31 19 -58 34 -61 34 -2 0 -23 12 -47 27 -61 38 -144 83 -154 83 -4 0 -19 -9 -33 -19z" style="block-size:auto;cursor:move;d:path(&quot;M 2440 2391 C 2411 2369 2321 2318 2271 2294 L 2237 2278 L 2351 2211 C 2570 2083 2553 2091 2575 2105 C 2586 2112 2639 2143 2693 2175 L 2792 2232 L 2735 2266 C 2704 2285 2677 2300 2674 2300 C 2672 2300 2651 2312 2627 2327 C 2566 2365 2483 2410 2473 2410 C 2469 2410 2454 2401 2440 2391 Z&quot;);fill:rgb(35, 130, 127);height:auto;inline-size:auto;overflow-x:visible;overflow-y:visible;perspective-origin:0px 0px;text-align:center;transform-origin:0px 0px;vertical-align:baseline;width:auto;"/><path id="pk9o9zPd2" d="M877 1983 c-4 -3 -7 -66 -7 -138 0 -113 2 -134 18 -147 15 -14 320 -193 459 -270 l51 -29 89 53 c48 29 102 60 118 69 17 9 31 23 32 30 2 9 -134 93 -365 227 -203 116 -373 212 -379 212 -5 0 -13 -3 -16 -7z" style="block-size:auto;cursor:move;d:path(&quot;M 877 1983 C 873 1980 870 1917 870 1845 C 870 1732 872 1711 888 1698 C 903 1684 1208 1505 1347 1428 L 1398 1399 L 1487 1452 C 1535 1481 1589 1512 1605 1521 C 1622 1530 1636 1544 1637 1551 C 1639 1560 1503 1644 1272 1778 C 1069 1894 899 1990 893 1990 C 888 1990 880 1987 877 1983 Z&quot;);fill:rgb(35, 130, 127);height:auto;inline-size:auto;overflow-x:visible;overflow-y:visible;perspective-origin:0px 0px;text-align:center;transform-origin:0px 0px;vertical-align:baseline;width:auto;"/><path id="p3KAc5Itm" d="M1635 1500 c-16 -11 -25 -20 -20 -20 10 0 64 39 55 40 -3 0 -18 -9 -35 -20z" style="block-size:auto;cursor:move;d:path(&quot;M 1635 1500 C 1619 1489 1610 1480 1615 1480 C 1625 1480 1679 1519 1670 1520 C 1667 1520 1652 1511 1635 1500 Z&quot;);fill:rgb(35, 130, 127);height:auto;inline-size:auto;overflow-x:visible;overflow-y:visible;perspective-origin:0px 0px;text-align:center;transform-origin:0px 0px;vertical-align:baseline;width:auto;"/><path id="plXsgeaNC" d="M1508 1428 c-48 -29 -86 -53 -84 -55 4 -5 176 96 176 102 0 7 2 8 -92 -47z" style="block-size:auto;cursor:move;d:path(&quot;M 1508 1428 C 1460 1399 1422 1375 1424 1373 C 1428 1368 1600 1469 1600 1475 C 1600 1482 1602 1483 1508 1428 Z&quot;);fill:rgb(35, 130, 127);height:auto;inline-size:auto;overflow-x:visible;overflow-y:visible;perspective-origin:0px 0px;text-align:center;transform-origin:0px 0px;vertical-align:baseline;width:auto;"/><path id="plBcIiFYl" d="M2193 1177 c-78 -48 -77 -55 2 -12 81 44 83 45 64 44 -8 0 -37 -15 -66 -32z" style="block-size:auto;cursor:move;d:path(&quot;M 2193 1177 C 2115 1129 2116 1122 2195 1165 C 2276 1209 2278 1210 2259 1209 C 2251 1209 2222 1194 2193 1177 Z&quot;);fill:rgb(35, 130, 127);height:auto;inline-size:auto;overflow-x:visible;overflow-y:visible;perspective-origin:0px 0px;text-align:center;transform-origin:0px 0px;vertical-align:baseline;width:auto;"/><path id="pTu31SqPS" d="M2083 1110 c-18 -11 -33 -22 -33 -25 0 -2 16 5 35 16 19 12 35 23 35 25 0 6 -3 5 -37 -16z" style="block-size:auto;cursor:move;d:path(&quot;M 2083 1110 C 2065 1099 2050 1088 2050 1085 C 2050 1083 2066 1090 2085 1101 C 2104 1113 2120 1124 2120 1126 C 2120 1132 2117 1131 2083 1110 Z&quot;);fill:rgb(35, 130, 127);height:auto;inline-size:auto;overflow-x:visible;overflow-y:visible;perspective-origin:0px 0px;text-align:center;transform-origin:0px 0px;vertical-align:baseline;width:auto;"/></g></g><g id="l4opi8s5RuEc7g09eKLdbLe" fill="rgb(114,223,208)" style="block-size:auto;cursor:move;fill:rgb(114, 223, 208);height:auto;inline-size:auto;overflow-x:visible;overflow-y:visible;perspective-origin:0px 0px;text-align:center;transform-origin:0px 0px;vertical-align:baseline;width:auto;"><g style="block-size:auto;cursor:move;fill:rgb(114, 223, 208);height:auto;inline-size:auto;overflow-x:visible;overflow-y:visible;perspective-origin:0px 0px;text-align:center;transform-origin:0px 0px;vertical-align:baseline;width:auto;"><path id="p13IKHBz9k" d="M3775 3518 c-66 -38 -149 -87 -185 -108 -36 -21 -164 -95 -285 -165 -121 -70 -249 -144 -285 -165 -36 -21 -137 -79 -225 -130 -88 -51 -189 -109 -225 -130 -36 -21 -164 -95 -285 -165 -121 -70 -245 -141 -275 -159 -30 -18 -163 -95 -295 -171 -338 -194 -348 -201 -333 -212 7 -5 65 -40 129 -76 l115 -67 280 163 c154 90 287 167 295 170 8 4 28 15 44 26 17 10 46 27 65 38 19 12 166 97 325 190 858 500 1006 585 1018 580 11 -4 14 -277 14 -1511 1 -828 4 -1507 6 -1509 2 -1 57 31 121 71 l116 74 0 1664 c0 915 -3 1664 -7 1663 -5 0 -62 -32 -128 -71z" style="block-size:auto;cursor:move;d:path(&quot;M 3775 3518 C 3709 3480 3626 3431 3590 3410 C 3554 3389 3426 3315 3305 3245 C 3184 3175 3056 3101 3020 3080 C 2984 3059 2883 3001 2795 2950 C 2707 2899 2606 2841 2570 2820 C 2534 2799 2406 2725 2285 2655 C 2164 2585 2040 2514 2010 2496 C 1980 2478 1847 2401 1715 2325 C 1377 2131 1367 2124 1382 2113 C 1389 2108 1447 2073 1511 2037 L 1626 1970 L 1906 2133 C 2060 2223 2193 2300 2201 2303 C 2209 2307 2229 2318 2245 2329 C 2262 2339 2291 2356 2310 2367 C 2329 2379 2476 2464 2635 2557 C 3493 3057 3641 3142 3653 3137 C 3664 3133 3667 2860 3667 1626 C 3668 798 3671 119 3673 117 C 3675 116 3730 148 3794 188 L 3910 262 L 3910 1926 C 3910 2841 3907 3590 3903 3589 C 3898 3589 3841 3557 3775 3518 Z&quot;);fill:rgb(114, 223, 208);height:auto;inline-size:auto;overflow-x:visible;overflow-y:visible;perspective-origin:0px 0px;text-align:center;transform-origin:0px 0px;vertical-align:baseline;width:auto;"/><path id="pH2LqlESe" d="M559 3186 c-6 -7 -4 -2954 2 -2960 3 -4 98 47 210 112 112 66 388 226 614 357 226 130 462 268 525 305 63 37 174 101 245 142 142 82 195 112 605 351 151 87 304 176 340 197 36 21 95 55 131 76 36 22 98 57 137 79 l72 40 0 154 c0 125 -2 152 -14 148 -7 -3 -346 -198 -752 -434 -407 -236 -759 -441 -784 -455 -25 -14 -267 -154 -538 -312 -276 -161 -500 -285 -508 -282 -12 5 -14 173 -16 1168 l-3 1162 -125 77 c-127 79 -133 82 -141 75z" style="block-size:auto;cursor:move;d:path(&quot;M 559 3186 C 553 3179 555 232 561 226 C 564 222 659 273 771 338 C 883 404 1159 564 1385 695 C 1611 825 1847 963 1910 1000 C 1973 1037 2084 1101 2155 1142 C 2297 1224 2350 1254 2760 1493 C 2911 1580 3064 1669 3100 1690 C 3136 1711 3195 1745 3231 1766 C 3267 1788 3329 1823 3368 1845 L 3440 1885 L 3440 2039 C 3440 2164 3438 2191 3426 2187 C 3419 2184 3080 1989 2674 1753 C 2267 1517 1915 1312 1890 1298 C 1865 1284 1623 1144 1352 986 C 1076 825 852 701 844 704 C 832 709 830 877 828 1872 L 825 3034 L 700 3111 C 573 3190 567 3193 559 3186 Z&quot;);fill:rgb(114, 223, 208);height:auto;inline-size:auto;overflow-x:visible;overflow-y:visible;perspective-origin:0px 0px;text-align:center;transform-origin:0px 0px;vertical-align:baseline;width:auto;"/><path id="pi7sDJeCW" d="M2100 1495 c0 -29 2 -30 40 -10 40 21 38 35 -5 35 -31 0 -35 -3 -35 -25z" style="block-size:auto;cursor:move;d:path(&quot;M 2100 1495 C 2100 1466 2102 1465 2140 1485 C 2180 1506 2178 1520 2135 1520 C 2104 1520 2100 1517 2100 1495 Z&quot;);fill:rgb(114, 223, 208);height:auto;inline-size:auto;overflow-x:visible;overflow-y:visible;perspective-origin:0px 0px;text-align:center;transform-origin:0px 0px;vertical-align:baseline;width:auto;"/><path id="pVEVuNKgk" d="M877 780 c-6 -22 5 -25 34 -10 26 15 24 30 -5 30 -15 0 -26 -7 -29 -20z" style="block-size:auto;cursor:move;d:path(&quot;M 877 780 C 871 758 882 755 911 770 C 937 785 935 800 906 800 C 891 800 880 793 877 780 Z&quot;);fill:rgb(114, 223, 208);height:auto;inline-size:auto;overflow-x:visible;overflow-y:visible;perspective-origin:0px 0px;text-align:center;transform-origin:0px 0px;vertical-align:baseline;width:auto;"/></g></g><g id="l5cadR5ZPxNHRyVLKRsc3w3" fill="rgb(160,246,210)" style="block-size:auto;cursor:move;fill:rgb(160, 246, 210);height:auto;inline-size:auto;overflow-x:visible;overflow-y:visible;perspective-origin:0px 0px;text-align:center;transform-origin:0px 0px;vertical-align:baseline;width:auto;"><g style="block-size:auto;cursor:move;fill:rgb(160, 246, 210);height:auto;inline-size:auto;overflow-x:visible;overflow-y:visible;perspective-origin:0px 0px;text-align:center;transform-origin:0px 0px;vertical-align:baseline;width:auto;"><path id="pZOZKx8eI" d="M456 3849 c-134 -76 -169 -100 -160 -109 5 -4 158 -94 339 -200 182 -105 355 -206 385 -224 30 -18 190 -111 355 -206 165 -95 339 -197 387 -226 48 -29 96 -55 107 -59 14 -4 56 15 146 67 69 40 125 76 125 79 0 4 -30 25 -67 47 -93 54 -293 171 -378 219 -38 22 -129 74 -202 116 -72 42 -147 85 -165 96 -60 34 -152 88 -335 195 -68 39 -174 100 -331 189 -34 20 -72 43 -84 52 -13 8 -25 15 -28 14 -3 0 -45 -23 -94 -50z" style="block-size:auto;cursor:move;d:path(&quot;M 456 3849 C 322 3773 287 3749 296 3740 C 301 3736 454 3646 635 3540 C 817 3435 990 3334 1020 3316 C 1050 3298 1210 3205 1375 3110 C 1540 3015 1714 2913 1762 2884 C 1810 2855 1858 2829 1869 2825 C 1883 2821 1925 2840 2015 2892 C 2084 2932 2140 2968 2140 2971 C 2140 2975 2110 2996 2073 3018 C 1980 3072 1780 3189 1695 3237 C 1657 3259 1566 3311 1493 3353 C 1421 3395 1346 3438 1328 3449 C 1268 3483 1176 3537 993 3644 C 925 3683 819 3744 662 3833 C 628 3853 590 3876 578 3885 C 565 3893 553 3900 550 3899 C 547 3899 505 3876 456 3849 Z&quot;);fill:rgb(160, 246, 210);height:auto;inline-size:auto;overflow-x:visible;overflow-y:visible;perspective-origin:0px 0px;text-align:center;transform-origin:0px 0px;vertical-align:baseline;width:auto;"/><path id="ppIrOjJgo" d="M3545 3741 c-33 -21 -87 -53 -120 -71 -33 -18 -72 -41 -87 -51 -14 -11 -29 -19 -32 -19 -4 0 -25 -11 -47 -26 -22 -14 -56 -34 -75 -45 -20 -11 -95 -54 -167 -96 -73 -42 -147 -84 -165 -95 -30 -16 -199 -114 -354 -205 -107 -62 -183 -105 -216 -124 -102 -59 -184 -106 -234 -135 -184 -107 -275 -161 -336 -195 -102 -59 -184 -106 -234 -135 -121 -71 -178 -104 -338 -196 -91 -52 -187 -108 -215 -125 l-50 -29 -3 -71 -3 -71 38 -22 c39 -23 51 -30 161 -94 34 -20 88 -51 120 -70 105 -61 396 -229 447 -258 61 -34 89 -35 129 -5 17 12 68 45 113 72 65 39 80 52 70 62 -6 6 -151 93 -322 193 -170 99 -310 186 -310 193 0 6 92 65 205 130 365 212 823 478 915 532 50 29 243 142 430 250 1099 637 1032 597 1012 613 -37 30 -233 132 -251 131 -11 0 -48 -18 -81 -38z" style="block-size:auto;cursor:move;d:path(&quot;M 3545 3741 C 3512 3720 3458 3688 3425 3670 C 3392 3652 3353 3629 3338 3619 C 3324 3608 3309 3600 3306 3600 C 3302 3600 3281 3589 3259 3574 C 3237 3560 3203 3540 3184 3529 C 3164 3518 3089 3475 3017 3433 C 2944 3391 2870 3349 2852 3338 C 2822 3322 2653 3224 2498 3133 C 2391 3071 2315 3028 2282 3009 C 2180 2950 2098 2903 2048 2874 C 1864 2767 1773 2713 1712 2679 C 1610 2620 1528 2573 1478 2544 C 1357 2473 1300 2440 1140 2348 C 1049 2296 953 2240 925 2223 L 875 2194 L 872 2123 L 869 2052 L 907 2030 C 946 2007 958 2000 1068 1936 C 1102 1916 1156 1885 1188 1866 C 1293 1805 1584 1637 1635 1608 C 1696 1574 1724 1573 1764 1603 C 1781 1615 1832 1648 1877 1675 C 1942 1714 1957 1727 1947 1737 C 1941 1743 1796 1830 1625 1930 C 1455 2029 1315 2116 1315 2123 C 1315 2129 1407 2188 1520 2253 C 1885 2465 2343 2731 2435 2785 C 2485 2814 2678 2927 2865 3035 C 3964 3672 3897 3632 3877 3648 C 3840 3678 3644 3780 3626 3779 C 3615 3779 3578 3761 3545 3741 Z&quot;);fill:rgb(160, 246, 210);height:auto;inline-size:auto;overflow-x:visible;overflow-y:visible;perspective-origin:0px 0px;text-align:center;transform-origin:0px 0px;vertical-align:baseline;width:auto;"/><path id="pnwTJhnAp" d="M2755 2586 c-11 -7 -47 -28 -80 -46 -33 -18 -71 -40 -85 -50 -14 -9 -33 -20 -42 -23 -10 -4 -18 -10 -18 -15 0 -5 53 -40 118 -77 194 -113 232 -136 232 -143 0 -4 -449 -268 -997 -587 l-998 -580 -5 -153 c-6 -176 -14 -168 104 -97 39 23 202 117 361 210 472 273 640 370 720 418 28 17 70 41 95 55 25 14 178 103 340 197 319 186 618 359 798 462 62 36 114 68 116 72 2 3 -73 51 -167 106 -95 54 -236 136 -315 182 -79 46 -146 83 -150 83 -4 0 -16 -6 -27 -14z" style="block-size:auto;cursor:move;d:path(&quot;M 2755 2586 C 2744 2579 2708 2558 2675 2540 C 2642 2522 2604 2500 2590 2490 C 2576 2481 2557 2470 2548 2467 C 2538 2463 2530 2457 2530 2452 C 2530 2447 2583 2412 2648 2375 C 2842 2262 2880 2239 2880 2232 C 2880 2228 2431 1964 1883 1645 L 885 1065 L 880 912 C 874 736 866 744 984 815 C 1023 838 1186 932 1345 1025 C 1817 1298 1985 1395 2065 1443 C 2093 1460 2135 1484 2160 1498 C 2185 1512 2338 1601 2500 1695 C 2819 1881 3118 2054 3298 2157 C 3360 2193 3412 2225 3414 2229 C 3416 2232 3341 2280 3247 2335 C 3152 2389 3011 2471 2932 2517 C 2853 2563 2786 2600 2782 2600 C 2778 2600 2766 2594 2755 2586 Z&quot;);fill:rgb(160, 246, 210);height:auto;inline-size:auto;overflow-x:visible;overflow-y:visible;perspective-origin:0px 0px;text-align:center;transform-origin:0px 0px;vertical-align:baseline;width:auto;"/><path id="p19fMf7qcx" d="M2528 1310 c-36 -21 -92 -53 -123 -73 -57 -35 -57 -35 -33 -50 12 -8 97 -57 188 -110 91 -52 291 -168 445 -257 154 -90 283 -165 288 -167 4 -2 7 63 7 145 l0 150 -202 118 c-388 226 -489 284 -496 283 -4 -1 -37 -18 -74 -39z" style="block-size:auto;cursor:move;d:path(&quot;M 2528 1310 C 2492 1289 2436 1257 2405 1237 C 2348 1202 2348 1202 2372 1187 C 2384 1179 2469 1130 2560 1077 C 2651 1025 2851 909 3005 820 C 3159 730 3288 655 3293 653 C 3297 651 3300 716 3300 798 L 3300 948 L 3098 1066 C 2710 1292 2609 1350 2602 1349 C 2598 1348 2565 1331 2528 1310 Z&quot;);fill:rgb(160, 246, 210);height:auto;inline-size:auto;overflow-x:visible;overflow-y:visible;perspective-origin:0px 0px;text-align:center;transform-origin:0px 0px;vertical-align:baseline;width:auto;"/></g></g></svg>